<svg xmlns="http://www.w3.org/2000/svg" viewBox="0 0 1600 1000" role="img" aria-labelledby="title desc">
  <title id="title">Ceiling map view</title>
  <desc id="desc">Upward cockpit ceiling illustration with projector housing and a matte central zone for map overlays.</desc>
  <defs>
    <linearGradient id="bg" x1="0" y1="0" x2="0" y2="1">
      <stop offset="0%" stop-color="#233245"/>
      <stop offset="100%" stop-color="#0a121d"/>
    </linearGradient>
    <linearGradient id="arch" x1="0" y1="0" x2="0" y2="1">
      <stop offset="0%" stop-color="#48576b"/>
      <stop offset="100%" stop-color="#121a26"/>
    </linearGradient>
    <radialGradient id="projectorGlow" cx="50%" cy="50%" r="50%">
      <stop offset="0%" stop-color="#8de7ff" stop-opacity="0.68"/>
      <stop offset="38%" stop-color="#8de7ff" stop-opacity="0.22"/>
      <stop offset="100%" stop-color="#09111b" stop-opacity="0"/>
    </radialGradient>
  </defs>
  <rect width="1600" height="1000" fill="url(#bg)"/>
  <path d="M220 0 H1380 V160 C1380 256 1302 334 1206 334 H394 C298 334 220 256 220 160 Z" fill="url(#arch)"/>
  <path d="M320 88 H1280 V192 C1280 246 1236 290 1182 290 H418 C364 290 320 246 320 192 Z" fill="#0d1520" stroke="#f2d296" stroke-opacity="0.1"/>
  <ellipse cx="800" cy="236" rx="188" ry="116" fill="#111e2d"/>
  <ellipse cx="800" cy="236" rx="146" ry="86" fill="url(#projectorGlow)"/>
  <ellipse cx="800" cy="236" rx="96" ry="58" fill="#14263a" stroke="#8ce5ff" stroke-opacity="0.24"/>
  <path d="M462 412 C548 366 654 340 800 340 C946 340 1052 366 1138 412" stroke="#8ce5ff" stroke-opacity="0.15" stroke-width="16" stroke-linecap="round"/>
  <rect x="292" y="380" width="1016" height="434" rx="48" fill="#0d1520" stroke="#8ce5ff" stroke-opacity="0.16" stroke-width="4"/>
  <rect x="332" y="420" width="936" height="354" rx="28" fill="#0b131d"/>
  <path d="M420 470 H1180" stroke="#f2d296" stroke-opacity="0.08" stroke-width="8" stroke-linecap="round"/>
  <path d="M420 524 H1180" stroke="#8ce5ff" stroke-opacity="0.08" stroke-width="5" stroke-linecap="round"/>
  <path d="M420 580 H1180" stroke="#f2d296" stroke-opacity="0.06" stroke-width="4" stroke-linecap="round"/>
  <path d="M420 644 H1180" stroke="#8ce5ff" stroke-opacity="0.06" stroke-width="4" stroke-linecap="round"/>
  <path d="M540 860 C618 792 698 760 800 760 C902 760 982 792 1060 860" stroke="#3f4f63" stroke-width="90" stroke-linecap="round" opacity="0.85"/>
  <path d="M140 934 C420 856 1180 856 1460 934" stroke="#0b1018" stroke-width="150" stroke-linecap="round" opacity="0.92"/>
</svg>
