<svg xmlns="http://www.w3.org/2000/svg" viewBox="0 0 1600 1000" role="img" aria-labelledby="title desc">
  <title id="title">Aft cabin view</title>
  <desc id="desc">Rear ship interior with bunk, storage, and two matte monitor zones for ship overlays.</desc>
  <defs>
    <linearGradient id="bg" x1="0" y1="0" x2="0" y2="1">
      <stop offset="0%" stop-color="#2b2528"/>
      <stop offset="100%" stop-color="#0d1219"/>
    </linearGradient>
    <linearGradient id="panel" x1="0" y1="0" x2="0" y2="1">
      <stop offset="0%" stop-color="#3d4149"/>
      <stop offset="100%" stop-color="#15181f"/>
    </linearGradient>
    <linearGradient id="bunk" x1="0" y1="0" x2="1" y2="1">
      <stop offset="0%" stop-color="#67504b"/>
      <stop offset="100%" stop-color="#2d2327"/>
    </linearGradient>
  </defs>
  <rect width="1600" height="1000" fill="url(#bg)"/>
  <rect x="86" y="88" width="1428" height="824" rx="54" fill="#151920" stroke="#f2d198" stroke-opacity="0.08"/>
  <rect x="156" y="214" width="628" height="338" rx="36" fill="url(#bunk)"/>
  <rect x="188" y="246" width="564" height="112" rx="28" fill="#9b857a" opacity="0.22"/>
  <rect x="176" y="624" width="404" height="180" rx="28" fill="#2a2f38"/>
  <rect x="616" y="188" width="284" height="238" rx="28" fill="#141a23" stroke="#8fe5ff" stroke-opacity="0.18" stroke-width="4"/>
  <rect x="616" y="488" width="320" height="278" rx="28" fill="#141a23" stroke="#8fe5ff" stroke-opacity="0.18" stroke-width="4"/>
  <rect x="650" y="222" width="216" height="170" rx="18" fill="#09111a"/>
  <rect x="650" y="522" width="252" height="210" rx="18" fill="#09111a"/>
  <rect x="994" y="200" width="370" height="586" rx="34" fill="url(#panel)"/>
  <rect x="1036" y="250" width="286" height="74" rx="20" fill="#232933"/>
  <rect x="1036" y="350" width="286" height="74" rx="20" fill="#232933"/>
  <rect x="1036" y="450" width="286" height="74" rx="20" fill="#232933"/>
  <rect x="1036" y="590" width="286" height="138" rx="26" fill="#232933"/>
  <path d="M120 918 C420 844 1180 844 1480 918" stroke="#0a0f15" stroke-width="148" stroke-linecap="round" opacity="0.95"/>
</svg>
