<svg xmlns="http://www.w3.org/2000/svg" viewBox="0 0 1600 1000" role="img" aria-labelledby="title desc">
  <title id="title">Radio console view</title>
  <desc id="desc">Starboard radio console with a matte display surface for message overlays.</desc>
  <defs>
    <linearGradient id="bg" x1="0" y1="0" x2="0" y2="1">
      <stop offset="0%" stop-color="#243041"/>
      <stop offset="100%" stop-color="#0b1018"/>
    </linearGradient>
    <linearGradient id="console" x1="0" y1="0" x2="0" y2="1">
      <stop offset="0%" stop-color="#475468"/>
      <stop offset="100%" stop-color="#151a23"/>
    </linearGradient>
  </defs>
  <rect width="1600" height="1000" fill="url(#bg)"/>
  <rect x="900" y="132" width="484" height="716" rx="42" fill="url(#console)"/>
  <rect x="962" y="236" width="360" height="224" rx="30" fill="#09111a" stroke="#90e6ff" stroke-opacity="0.18" stroke-width="4"/>
  <rect x="1002" y="274" width="280" height="148" rx="20" fill="#0d141d"/>
  <rect x="966" y="510" width="352" height="114" rx="26" fill="#242b35"/>
  <circle cx="1042" cy="566" r="24" fill="#d4b27a"/>
  <circle cx="1142" cy="566" r="24" fill="#d4b27a"/>
  <circle cx="1242" cy="566" r="24" fill="#d4b27a"/>
  <rect x="990" y="672" width="304" height="78" rx="20" fill="#242b35"/>
  <rect x="220" y="214" width="432" height="420" rx="54" fill="#1b232f" opacity="0.78"/>
  <rect x="266" y="260" width="340" height="328" rx="34" fill="#101722" opacity="0.9"/>
  <path d="M180 918 C440 842 1180 842 1460 918" stroke="#0a0f15" stroke-width="150" stroke-linecap="round" opacity="0.95"/>
</svg>
